<svg preserveAspectRatio="xMinYMax" viewBox="0 0 1001 366" fill="none" xmlns="http://www.w3.org/2000/svg">
<path d="M894.984 305.716H877.265V288.495H931.695V305.716H913.975V352.315H894.984V305.716Z" fill="#EEEEEE"/>
<path d="M932.95 320.405C932.95 339.492 946.614 352.315 972.187 352.315H1000.03V335.077H972.187C960.358 335.077 952.569 330.809 952.569 320.405C952.569 310.001 960.358 305.732 972.187 305.732H1000.03V288.495H972.187C946.598 288.495 932.95 301.317 932.95 320.405Z" fill="#EEEEEE"/>
<path d="M818.425 288.495L828.549 326.572L838.672 288.495H872.212V352.298H853.237V300.359L839.428 352.298H817.669L803.86 300.392V352.298H784.885V288.495H818.425Z" fill="#EEEEEE"/>
<path d="M740.595 284.664C735.3 284.664 729.056 289.777 723.873 298.395C718.498 307.306 715.279 318.36 715.279 327.936C715.279 341.976 723.101 356.129 740.595 356.129C758.073 356.129 765.911 341.976 765.911 327.936C765.911 318.343 762.708 307.306 757.333 298.395C752.134 289.777 745.874 284.664 740.595 284.664Z" fill="#EEEEEE"/>
<path d="M355.771 304.369C342.01 304.369 335.154 312.646 335.154 328.65C335.154 344.93 342.01 353.061 355.755 353.078C367.02 353.078 373.667 348.63 375.228 337.821H366.28C365.137 344.118 361.806 346.163 355.771 346.163C347.627 346.163 344.102 340.953 344.102 331.312V326.037C344.102 316.266 347.901 311.267 355.771 311.267C362.144 311.267 365.33 313.864 366.216 319.756H375.164C373.538 308.881 367.23 304.369 355.771 304.369Z" fill="#EEEEEE"/>
<path d="M400.142 324.884C393.897 324.884 391.467 327.141 391.467 332.61V352.315H383.195V317.84H391.129V323.927C392.69 320.031 395.812 317.84 400.624 317.84H404.358V324.884H400.142Z" fill="#EEEEEE"/>
<path fill-rule="evenodd" clip-rule="evenodd" d="M440.973 341.164H432.7C432.153 345.611 429.031 346.91 425.184 346.894C419.954 346.894 417.105 343.55 417.105 337.529V334.932H440.844V333.146C440.844 322.142 435.34 317.077 425.168 317.077C413.983 317.077 408.688 323.505 408.688 335.143C408.688 346.634 413.838 353.062 425.168 353.062C434.117 353.062 439.894 349.442 440.973 341.164ZM432.217 329.608H417.234C417.781 325.29 420.211 323.245 425.088 323.245C429.707 323.245 431.815 325.371 432.217 329.608Z" fill="#EEEEEE"/>
<path fill-rule="evenodd" clip-rule="evenodd" d="M460.72 331.994L469.604 331.166V329.592C469.604 324.868 467.367 323.229 463.359 323.229C459.432 323.229 457.115 324.803 456.712 328.504H448.295C448.762 321.119 453.864 317.077 463.279 317.077C472.645 317.077 477.924 320.908 477.924 329.738V352.315H469.99V347.933C467.544 351.357 463.826 353.062 458.805 353.062C450.935 353.062 447.072 348.744 447.072 342.933C447.088 335.889 451.417 332.886 460.72 331.994ZM469.604 339.314V336.311L461.46 337.139C457.453 337.545 455.489 338.648 455.489 341.716V343.144C455.489 345.806 457.598 347.186 461.315 347.186C466.208 347.186 469.604 344.508 469.604 339.314Z" fill="#EEEEEE"/>
<path d="M487.918 317.84H483.573V324.463H487.918V342.868C487.918 349.507 490.155 352.315 496.867 352.315H504.592V345.676H499.78C497.14 345.676 496.191 344.654 496.191 341.846V324.479H504.608V317.84H496.191V307.095H487.918V317.84Z" fill="#EEEEEE"/>
<path fill-rule="evenodd" clip-rule="evenodd" d="M533.433 341.164H541.705C540.627 349.442 534.849 353.062 525.901 353.062C514.57 353.062 509.42 346.634 509.42 335.143C509.42 323.505 514.715 317.077 525.901 317.077C536.072 317.077 541.576 322.142 541.576 333.146V334.932H517.838V337.529C517.838 343.55 520.686 346.894 525.917 346.894C529.779 346.91 532.885 345.611 533.433 341.164ZM517.966 329.608H532.95C532.548 325.371 530.439 323.245 525.836 323.245C520.96 323.245 518.514 325.29 517.966 329.608Z" fill="#EEEEEE"/>
<path fill-rule="evenodd" clip-rule="evenodd" d="M573.507 347.682C571.268 351.22 567.668 353.061 562.595 353.061C552.616 353.061 547.74 346.358 547.74 335.142C547.74 323.781 552.633 317.077 562.595 317.077C567.407 317.077 570.867 318.863 573.169 322.077V302.372H581.441V352.315H573.507V347.682ZM573.185 332.416V337.61C573.185 343.274 570.481 346.845 564.767 346.845C559.07 346.845 556.35 343.566 556.35 337.61V332.416C556.35 326.524 559.07 323.31 564.767 323.31C570.465 323.31 573.185 326.524 573.185 332.416Z" fill="#EEEEEE"/>
<path fill-rule="evenodd" clip-rule="evenodd" d="M608.189 302.372H616.462V322.012C618.699 318.798 622.094 317.094 626.907 317.094C637.014 317.094 641.971 323.797 641.971 335.159C641.971 346.374 636.949 353.078 626.907 353.078C621.885 353.078 618.296 351.227 616.124 347.673V352.331H608.189V302.372ZM633.296 337.61V332.416C633.296 326.524 630.576 323.31 624.959 323.31C619.326 323.31 616.622 326.394 616.478 331.994V337.61C616.478 343.29 619.262 346.845 624.895 346.845C630.576 346.845 633.296 343.274 633.296 337.61Z" fill="#EEEEEE"/>
<path d="M658.676 355.804C657.646 358.742 656.439 359.359 652.769 359.359H649.808V365.997H654.62C661.122 365.997 663.439 364.277 666.079 356.827L680.113 317.84H672.243L663.633 341.992L654.749 317.84H645.994L659.352 353.759L658.676 355.804Z" fill="#EEEEEE"/>
<path d="M327.485 8.9033V229.426C327.485 234.336 323.492 238.33 318.584 238.33H261.098C256.19 238.33 252.197 234.336 252.197 229.426V8.9033C252.197 3.994 256.19 0 261.098 0H318.584C323.492 0 327.485 3.994 327.485 8.9033ZM237.596 228.345L170.627 113.746L234.102 10.4219C237.16 6.01181 234.019 0 228.653 0L158.876 0.124813C156.671 0.124813 154.592 1.22732 153.364 3.05791L104.052 86.8696H75.268V8.9033C75.268 3.994 71.2747 0 66.3664 0H8.90154C3.97242 0 0 3.994 0 8.9033V229.426C0 234.336 3.99322 238.33 8.90154 238.33H66.3872C71.2955 238.33 75.2888 234.336 75.2888 229.426V151.793H110.313L159.333 235.189C160.54 237.186 162.703 238.434 165.032 238.434H231.939C237.139 238.434 240.321 232.755 237.596 228.345ZM991.129 238.33C996.037 238.33 1000.03 234.336 1000.03 229.426V8.9033C1000.03 3.994 996.037 0 991.129 0H935.723C930.814 0 926.821 3.994 926.821 8.9033L927.175 121.713L826.596 0.124813H762.704C757.796 0.124813 753.803 4.11882 753.803 9.02811V229.572C753.803 234.481 757.775 238.455 762.683 238.455H817.965C822.873 238.455 826.845 234.481 826.845 229.572V116.617L926.405 238.351L991.129 238.33ZM730.759 9.8394V228.511C730.759 233.94 726.349 238.351 720.921 238.351H360.346C354.918 238.351 350.509 233.94 350.509 228.511V9.8394C350.509 4.41005 354.918 0 360.346 0H720.942C726.349 0 730.759 4.41005 730.759 9.8394ZM655.927 63.3632C655.927 61.387 654.118 59.9101 652.163 60.3053C613.208 68.0853 475.276 69.271 429.021 60.2429C427.108 59.8685 425.34 61.3454 425.34 63.3216V171.513C425.34 173.427 427.025 174.883 428.938 174.613C467.289 168.934 613.083 169.87 652.433 174.738C654.305 174.967 655.927 173.51 655.927 171.638V63.3632V63.3632Z" fill="black"/>
<path d="M327.485 8.9033V229.426C327.485 234.336 323.492 238.33 318.584 238.33H261.098C256.19 238.33 252.197 234.336 252.197 229.426V8.9033C252.197 3.994 256.19 0 261.098 0H318.584C323.492 0 327.485 3.994 327.485 8.9033ZM237.596 228.345L170.627 113.746L234.102 10.4219C237.16 6.01181 234.019 0 228.653 0L158.876 0.124813C156.671 0.124813 154.592 1.22732 153.364 3.05791L104.052 86.8696H75.268V8.9033C75.268 3.994 71.2747 0 66.3664 0H8.90154C3.97242 0 0 3.994 0 8.9033V229.426C0 234.336 3.99322 238.33 8.90154 238.33H66.3872C71.2955 238.33 75.2888 234.336 75.2888 229.426V151.793H110.313L159.333 235.189C160.54 237.186 162.703 238.434 165.032 238.434H231.939C237.139 238.434 240.321 232.755 237.596 228.345ZM991.129 238.33C996.037 238.33 1000.03 234.336 1000.03 229.426V8.9033C1000.03 3.994 996.037 0 991.129 0H935.723C930.814 0 926.821 3.994 926.821 8.9033L927.175 121.713L826.596 0.124813H762.704C757.796 0.124813 753.803 4.11882 753.803 9.02811V229.572C753.803 234.481 757.775 238.455 762.683 238.455H817.965C822.873 238.455 826.845 234.481 826.845 229.572V116.617L926.405 238.351L991.129 238.33ZM730.759 9.8394V228.511C730.759 233.94 726.349 238.351 720.921 238.351H360.346C354.918 238.351 350.509 233.94 350.509 228.511V9.8394C350.509 4.41005 354.918 0 360.346 0H720.942C726.349 0 730.759 4.41005 730.759 9.8394ZM655.927 63.3632C655.927 61.387 654.118 59.9101 652.163 60.3053C613.208 68.0853 475.276 69.271 429.021 60.2429C427.108 59.8685 425.34 61.3454 425.34 63.3216V171.513C425.34 173.427 427.025 174.883 428.938 174.613C467.289 168.934 613.083 169.87 652.433 174.738C654.305 174.967 655.927 173.51 655.927 171.638V63.3632V63.3632Z" fill="#EEEEEE"/>
</svg>
